HIERARCHY
ROOT Hips
{
	OFFSET -3.958830 18.904000 13.208200
	CHANNELS 6 Xposition Yposition Zposition Zrotation Yrotation Xrotation 
	JOINT LHipJoint
	{
		OFFSET 0.000000 0.000000 0.000000
		CHANNELS 3 Zrotation Yrotation Xrotation
		JOINT LeftUpLeg
		{
			OFFSET 1.800000 -1.400000 0.085000
			CHANNELS 3 Zrotation Yrotation Xrotation
			JOINT LeftLeg
			{
				OFFSET 2.215000 -6.000000 0.000000
				CHANNELS 3 Zrotation Yrotation Xrotation
				JOINT LeftFoot
				{
					OFFSET 2.500000 -6.900000 0.000000
					CHANNELS 3 Zrotation Yrotation Xrotation
					JOINT LeftToeBase
					{
						OFFSET 0.200000 -0.500000 1.950000
						CHANNELS 3 Zrotation Yrotation Xrotation
						End Site
						{
							OFFSET 0.000000 0.000000 0.000000
						}
					}
				}
			}
		}
	}
	JOINT RHipJoint
	{
		OFFSET 0.000000 0.000000 0.000000
		CHANNELS 3 Zrotation Yrotation Xrotation
		JOINT RightUpLeg
		{
			OFFSET -1.800000 -1.400000 0.085000
			CHANNELS 3 Zrotation Yrotation Xrotation
			JOINT RightLeg
			{
				OFFSET -2.215000 -6.000000 0.000000
				CHANNELS 3 Zrotation Yrotation Xrotation
				JOINT RightFoot
				{
					OFFSET -2.500000 -6.900000 0.000000
					CHANNELS 3 Zrotation Yrotation Xrotation
					JOINT RightToeBase
					{
						OFFSET -0.200000 -0.500000 1.950000
						CHANNELS 3 Zrotation Yrotation Xrotation
						End Site
						{
							OFFSET 0.000000 0.000000 0.000000
						}
					}
				}
			}
		}
	}
	JOINT LowerBack
	{
		OFFSET 0.000000 0.000000 0.000000
		CHANNELS 3 Zrotation Yrotation Xrotation
		JOINT Spine
		{
			OFFSET -0.087000 1.940000 -0.288900
			CHANNELS 3 Zrotation Yrotation Xrotation
			JOINT Spine1
			{
				OFFSET 0.000000 1.950000 0.060000
				CHANNELS 3 Zrotation Yrotation Xrotation
				JOINT Neck
				{
					OFFSET 0.000000 0.000000 0.000000
					CHANNELS 3 Zrotation Yrotation Xrotation
					JOINT Neck1
					{
						OFFSET 0.000000 1.600000 0.340000
						CHANNELS 3 Zrotation Yrotation Xrotation
						JOINT Head
						{
							OFFSET 0.000000 1.667000 -0.240000
							CHANNELS 3 Zrotation Yrotation Xrotation
							End Site
							{
								OFFSET 0.000000 0.000000 0.000000
							}
						}
					}
				}
				JOINT LeftShoulder
				{
					OFFSET 0.000000 0.000000 0.000000
					CHANNELS 3 Zrotation Yrotation Xrotation
					JOINT LeftArm
					{
						OFFSET 2.700000 1.550000 -0.730000
						CHANNELS 3 Zrotation Yrotation Xrotation
						JOINT LeftForeArm
						{
							OFFSET 5.450000 0.000000 0.000000
							CHANNELS 3 Zrotation Yrotation Xrotation
							JOINT LeftHand
							{
								OFFSET 3.450000 0.000000 0.000000
								CHANNELS 3 Zrotation Yrotation Xrotation
								JOINT LeftHandIndex1
								{
									OFFSET 0.750000 0.000000 0.000000
									CHANNELS 3 Zrotation Yrotation Xrotation
									End Site
									{
										OFFSET 0.000000 0.000000 0.000000
									}
								}
							}
						}
					}
				}
				JOINT RightShoulder
				{
					OFFSET 0.000000 0.000000 0.000000
					CHANNELS 3 Zrotation Yrotation Xrotation
					JOINT RightArm
					{
						OFFSET -2.700000 1.550000 -0.730000
						CHANNELS 3 Zrotation Yrotation Xrotation
						JOINT RightForeArm
						{
							OFFSET -5.450000 0.000000 0.000000
							CHANNELS 3 Zrotation Yrotation Xrotation
							JOINT RightHand
							{
								OFFSET -3.450000 0.000000 0.000000
								CHANNELS 3 Zrotation Yrotation Xrotation
								JOINT RightHandIndex1
								{
									OFFSET -0.750000 0.000000 0.000000
									CHANNELS 3 Zrotation Yrotation Xrotation
									End Site
									{
										OFFSET 0.000000 0.000000 0.000000
									}
								}
							}
						}
					}
				}
			}
		}
	}
}
MOTION
Frames: 8
Frame Time: 0.016667
0.378770 16.391690 -5.912570 -9.690296 -28.242002 5.599344 -15.694960 13.169585 2.556443 1.627515 -0.224584 -0.191624 -13.895530 12.038362 26.532809 0.767934 6.751804 2.233954 0.776300 0.533330 0.706600 18.229762 -6.954440 6.291912 19.090866 20.631416 -41.032158 -1.367234 -3.949511 51.226624 -1.254654 -6.035427 2.283054 0.062900 -0.407590 0.301690 -2.729388 -5.573160 -9.284791 4.424866 -5.388685 35.579026 -0.767747 -2.560497 -4.453825 4.541249 -9.514614 -12.700113 -25.558552 16.127086 40.476160 -5.776340 10.145900 -21.231130 -27.925664 -6.365619 4.804409 -48.660396 8.434607 -13.307375 -71.711347 -53.051145 28.596560 -3.001366 3.522711 0.736220 -0.347540 0.553690 0.208360 20.458605 13.985198 7.914847 42.661300 -6.349629 -13.445177 24.062564 32.659237 3.917865 2.427694 -1.430149 0.200370 -0.124150 -0.476890 -0.162790 
0.366430 16.353920 -5.878630 -9.368004 -27.906938 5.856879 -15.693957 13.249736 2.636795 1.776573 -0.691230 -1.070601 -14.272479 12.489001 28.160869 0.842250 7.006922 2.160119 0.746360 0.515380 0.660700 18.202211 -7.032396 6.139846 20.495835 19.083451 -40.705470 -2.426071 -2.619884 43.646066 -0.921291 -4.588940 2.768795 0.050030 -0.369060 0.293130 -2.667570 -5.682937 -9.199719 3.717315 -5.829696 35.744406 0.030280 -3.091744 -5.237133 4.171549 -9.939127 -12.206044 -26.298745 16.480212 39.014637 -5.421180 10.253010 -20.361700 -27.706824 -4.568223 4.546776 -49.203426 10.051285 -13.661354 -75.384503 -52.735615 30.320329 -3.029664 3.537361 0.704330 -0.328370 0.528250 0.222750 21.051914 12.247054 7.167066 42.878928 -6.818564 -13.096138 23.431298 29.281023 3.206026 2.458963 -1.401830 0.197460 -0.115500 -0.467910 -0.138550 
0.340510 16.329150 -5.833480 -8.935706 -29.416388 5.377388 -15.713136 13.366626 2.805521 1.547550 -1.224219 -2.210750 -15.066791 13.475369 31.028911 0.977085 7.491929 1.991017 0.762130 0.540310 0.656120 18.139145 -7.217026 5.811734 22.632096 16.756817 -37.280547 -3.602761 -1.480202 35.108870 -0.650881 -3.154244 3.265527 0.051470 -0.376610 0.293920 -2.510118 -5.784425 -9.115290 1.998707 -5.064391 36.502636 1.202411 -2.558856 -6.248987 3.795922 -10.249193 -11.926356 -27.632951 17.156523 39.201474 -4.802950 10.172020 -20.577130 -28.211901 -3.106294 4.220421 -48.793766 11.758968 -14.013431 -78.359714 -52.287270 31.609400 -3.015524 3.557925 0.703990 -0.344790 0.542910 0.236940 22.453897 11.238767 6.801050 42.217143 -7.745292 -12.701047 22.931502 25.853702 2.536596 2.484005 -1.377515 0.216080 -0.118480 -0.481640 -0.122720 
0.318690 16.292520 -5.779870 -8.192221 -30.305750 4.664004 -15.721433 13.389906 3.006476 1.492795 -2.065780 -3.472751 -16.444484 14.828088 34.206556 1.141226 8.156374 1.774114 0.776330 0.568690 0.646870 18.095159 -7.400342 5.476022 22.850328 14.915715 -35.145937 -2.931962 -1.457467 29.981286 -0.515434 -2.445787 3.521545 0.066100 -0.366180 0.293460 -2.411829 -5.780672 -9.050489 0.502973 -4.593486 36.951548 2.072385 -2.382966 -6.830118 3.233084 -10.470248 -11.428379 -28.391882 17.454716 39.105886 -4.187660 9.905040 -20.570440 -28.966991 -1.984751 3.852954 -47.711340 12.833933 -13.992067 -81.191456 -52.434581 33.467882 -3.020690 3.579676 0.691260 -0.343410 0.544630 0.253960 24.361358 10.311486 6.306322 41.194551 -8.277455 -12.265845 21.899324 23.697119 2.054684 2.483093 -1.370263 0.225350 -0.109340 -0.490980 -0.105810 
0.295700 16.255440 -5.730520 -7.426008 -30.889496 3.803041 -15.754917 13.313497 3.221701 2.168472 -3.140468 -4.823189 -18.918055 16.756238 37.118623 1.343365 8.996966 1.509477 0.784850 0.591280 0.638890 18.054175 -7.434865 5.233061 22.311521 13.970228 -34.153315 -1.824389 -1.709339 28.122870 -0.477954 -2.231074 3.607406 0.077930 -0.350310 0.288930 -2.308779 -5.825977 -9.055037 -1.010535 -4.069453 37.514568 3.058397 -2.196603 -7.012886 2.704575 -10.583255 -11.122137 -29.109528 17.831759 39.201872 -3.662190 9.713490 -20.744450 -29.047046 -1.272001 3.624467 -47.050210 13.268132 -13.915846 -83.777632 -52.698252 35.338116 -3.036468 3.580029 0.685380 -0.340620 0.546340 0.266400 25.544532 9.714429 5.997532 40.763200 -8.770236 -12.128425 20.442471 22.461217 1.690897 2.471067 -1.349092 0.227690 -0.086070 -0.492500 -0.092490 
0.272030 16.215420 -5.688530 -6.874326 -31.182231 3.040499 -15.796366 13.120491 3.431500 3.645270 -4.323859 -6.218577 -22.159867 19.129420 39.547433 1.588484 9.891403 1.228650 0.801310 0.629290 0.638460 18.030806 -7.323959 5.134799 21.337569 14.090683 -34.674484 -0.570211 -2.159935 29.607518 -0.524610 -2.446452 3.532779 0.089290 -0.353790 0.289300 -2.251911 -5.838944 -9.133995 -2.227102 -3.718866 38.251322 3.788589 -2.162473 -7.065449 2.288212 -10.586530 -10.921018 -29.443370 17.951929 39.441300 -3.446100 9.580300 -20.844260 -28.798782 -0.838550 3.520273 -46.420826 13.595102 -13.895940 -86.349095 -53.135742 37.423134 -3.039543 3.602504 0.666990 -0.343870 0.558130 0.278080 26.150451 9.300164 5.753024 40.966499 -9.111538 -12.110580 18.793010 21.475509 1.356069 2.478471 -1.336886 0.249030 -0.084220 -0.506290 -0.074110 
0.248170 16.176660 -5.653570 -6.533757 -31.314379 2.167979 -15.846193 12.911136 3.673545 5.342781 -5.703496 -7.975762 -25.160278 21.617389 42.263478 1.836408 10.798905 0.946505 0.838020 0.679320 0.662250 18.003340 -7.184010 5.028913 20.533783 14.188965 -34.973862 0.619981 -2.683182 31.321711 -0.600651 -2.716092 3.428206 0.105420 -0.381160 0.297470 -2.180535 -5.897303 -9.230864 -3.404469 -3.308524 39.414677 4.625386 -2.003998 -7.036921 1.967120 -10.521402 -10.820192 -29.757018 17.993826 39.957361 -3.270360 9.425280 -21.599030 -28.290204 -0.591050 3.422848 -45.984704 13.460135 -13.855916 -88.689114 -53.939433 39.779324 -3.025288 3.628793 0.666740 -0.364500 0.589290 0.290370 26.309200 9.074713 5.661525 41.331363 -9.477424 -12.221210 17.358797 20.960229 1.141475 2.487973 -1.334420 0.276680 -0.093260 -0.534410 -0.063730 
0.223260 16.138070 -5.621420 -6.073998 -31.558175 1.067631 -15.902337 12.717276 3.945888 6.985152 -7.067586 -9.711470 -28.114489 24.180532 44.761976 2.068872 11.656357 0.686170 0.869110 0.721640 0.682330 17.967445 -7.064326 4.869988 19.505297 14.081027 -34.899377 2.263001 -3.447299 32.874501 -0.684992 -3.022827 3.314842 0.116930 -0.408420 0.308360 -2.078563 -5.988887 -9.322656 -4.961783 -2.672866 40.701970 5.573518 -1.750101 -6.917268 1.708617 -10.322952 -10.758314 -29.852178 18.053939 40.745544 -3.266880 9.449020 -22.626180 -27.683713 -0.458654 3.344518 -45.361343 13.072624 -13.643702 -91.457628 -54.966812 42.794706 -3.016177 3.648431 0.677260 -0.384350 0.622500 0.299830 26.258501 8.870525 5.687756 41.746441 -10.135118 -12.707750 16.589309 22.037128 1.207703 2.474541 -1.345254 0.299430 -0.101030 -0.555090 -0.058310 
